# Blender v2.74 (sub 0) OBJ File: ''
# www.blender.org
o Cube
v 1.000000 -1.000000 -1.000000
v 1.000000 -1.000000 1.000000
v -1.000000 -1.000000 1.000000
v -1.000000 -1.000000 -1.000000
v 1.000000 1.000000 -0.999999
v 0.999999 1.000000 1.000001
v -1.000000 1.000000 1.000000
v -1.000000 1.000000 -1.000000
vt 0.343927 0.234003
vt 0.343153 0.601553
vt 0.024041 0.600662
vt 0.663038 0.234894
vt 0.662265 0.602445
vt 0.981376 0.603336
vt 0.980603 0.970887
vt 0.982150 0.235785
vt 0.308605 0.962282
vt 0.019202 0.962282
vt 0.019202 0.628949
vt 0.661491 0.969996
vt 0.342379 0.969104
vt 0.024815 0.233111
vt 0.308605 0.628949
vn 0.000000 -1.000000 0.000000
vn 0.000000 1.000000 0.000000
vn 1.000000 0.000000 0.000000
vn -0.000000 0.000000 1.000000
vn -1.000000 -0.000000 -0.000000
vn 0.000000 0.000000 -1.000000
s off
f 1/1/1 2/2/1 3/3/1
f 8/2/2 7/1/2 6/4/2
f 5/5/3 6/6/3 2/7/3
f 6/8/4 7/6/4 3/5/4
f 3/9/5 7/10/5 8/11/5
f 1/12/6 4/13/6 8/2/6
f 4/14/1 1/1/1 3/3/1
f 5/5/2 8/2/2 6/4/2
f 1/12/3 5/5/3 2/7/3
f 2/4/4 6/8/4 3/5/4
f 4/15/5 3/9/5 8/11/5
f 5/5/6 1/12/6 8/2/6
